<svg width="219" height="232" viewBox="0 0 219 232" fill="none" xmlns="http://www.w3.org/2000/svg">
<path d="M102 0C69.9675 0 44 25.9675 44 58C44 90.033 69.9675 116 102 116C69.9675 116 44 141.967 44 174C44 206.033 69.9675 232 102 232C134.033 232 160 206.033 160 174C160 206.033 185.967 232 218 232C250.033 232 276 206.033 276 174C276 141.967 250.033 116 218 116C250.033 116 276 90.033 276 58C276 25.9675 250.033 0 218 0C185.967 0 160 25.9675 160 58C160 25.9675 134.033 0 102 0Z" fill="#A483D0"/>
<path d="M17.3565 47.6896C17.2071 47.0374 18.0173 46.7596 18.2994 47.3664L20.6656 52.4571C23.7211 59.0305 30.3332 62.7723 36.6594 61.5079L41.5586 60.5287C42.1427 60.412 42.4559 61.3255 41.923 61.5917L37.4534 63.8242C31.682 66.7068 28.756 73.7183 30.376 80.7837L31.6305 86.2554C31.78 86.9077 30.9698 87.1855 30.6876 86.5786L28.3214 81.488C25.266 74.9146 18.6539 71.1729 12.3276 72.4373L7.42841 73.4164C6.84438 73.5331 6.53124 72.6196 7.06401 72.3534L11.5336 70.121C17.3051 67.2383 20.2311 60.2268 18.6111 53.1614L17.3565 47.6896Z" fill="#10E164" fill-opacity="0.9"/>
<path d="M35.6264 93.3674C35.6789 92.8775 36.3211 92.8775 36.3736 93.3674L36.8141 97.4775C37.3829 102.785 41.1622 106.969 45.9558 107.599L49.6681 108.086C50.1106 108.145 50.1106 108.855 49.6681 108.914L45.9558 109.401C41.1622 110.031 37.3829 114.215 36.8141 119.522L36.3736 123.633C36.3211 124.122 35.6789 124.122 35.6264 123.633L35.1859 119.522C34.6171 114.215 30.8378 110.031 26.0442 109.401L22.3319 108.914C21.8894 108.855 21.8894 108.145 22.3319 108.086L26.0442 107.599C30.8378 106.969 34.6171 102.785 35.1859 97.4775L35.6264 93.3674Z" fill="#10E164"/>
</svg>
